<svg xmlns="http://www.w3.org/2000/svg" xmlns:xlink="http://www.w3.org/1999/xlink" width="82" zoomAndPan="magnify" viewBox="0 0 61.5 52.499999" height="70" preserveAspectRatio="xMidYMid meet" version="1.0"><defs><clipPath id="813f57b62d"><path d="M 22.703125 18.203125 L 26.417969 18.203125 L 26.417969 21.917969 L 22.703125 21.917969 Z M 22.703125 18.203125 " clip-rule="nonzero"/></clipPath><clipPath id="60836d3884"><path d="M 13.046875 0.925781 L 51.664062 0.925781 L 51.664062 51.074219 L 13.046875 51.074219 Z M 13.046875 0.925781 " clip-rule="nonzero"/></clipPath></defs><g clip-path="url(#813f57b62d)"><path fill="#ffffff" d="M 22.703125 18.203125 L 26.417969 18.203125 L 26.417969 21.917969 L 22.703125 21.917969 Z M 22.703125 18.203125 " fill-opacity="1" fill-rule="nonzero"/></g><g clip-path="url(#60836d3884)"><path fill="#ffd335" d="M 25.449219 7.339844 C 25.433594 7.1875 25.390625 7.046875 25.324219 6.925781 C 25.3125 7.050781 25.371094 7.199219 25.449219 7.339844 Z M 25.535156 7.5625 C 25.519531 7.53125 25.5 7.5 25.480469 7.46875 C 25.484375 7.597656 25.46875 7.730469 25.425781 7.859375 C 25.453125 7.96875 25.46875 8.085938 25.46875 8.207031 C 25.46875 8.207031 25.46875 8.210938 25.472656 8.207031 C 25.644531 8.070312 25.710938 7.800781 25.535156 7.5625 Z M 26.242188 6.933594 C 26.210938 6.96875 26.179688 6.996094 26.140625 7.015625 C 26.117188 7.152344 26.066406 7.292969 26.011719 7.433594 C 26.015625 7.496094 26.019531 7.554688 26.015625 7.621094 C 26.003906 7.832031 25.9375 8.023438 25.839844 8.1875 C 25.941406 8.140625 26.03125 8.070312 26.089844 7.964844 C 26.105469 7.878906 26.128906 7.800781 26.15625 7.730469 C 26.207031 7.4375 26.191406 7.15625 26.242188 6.933594 Z M 39.347656 22.902344 C 39.519531 22.84375 39.75 22.878906 39.839844 23.089844 C 39.855469 23.132812 39.867188 23.175781 39.875 23.222656 C 39.828125 23.152344 39.792969 23.09375 39.769531 23.066406 C 39.707031 22.976562 39.5 22.9375 39.347656 22.902344 Z M 38.453125 22.441406 C 38.421875 22.40625 38.382812 22.371094 38.339844 22.339844 C 38.34375 22.339844 38.347656 22.339844 38.347656 22.339844 C 38.679688 22.246094 39.027344 22.421875 39.078125 22.671875 C 38.925781 22.546875 38.703125 22.472656 38.453125 22.441406 Z M 38.308594 22.433594 C 38.140625 22.425781 37.957031 22.410156 37.777344 22.398438 C 37.804688 22.378906 37.832031 22.359375 37.859375 22.34375 C 38.003906 22.351562 38.152344 22.359375 38.296875 22.347656 C 38.347656 22.371094 38.390625 22.40625 38.429688 22.441406 C 38.386719 22.4375 38.347656 22.433594 38.308594 22.433594 Z M 37.429688 22.386719 C 37.539062 22.34375 37.671875 22.339844 37.816406 22.34375 C 37.792969 22.359375 37.769531 22.375 37.75 22.394531 C 37.640625 22.390625 37.53125 22.386719 37.429688 22.386719 Z M 38.085938 22.292969 C 38.136719 22.292969 38.1875 22.300781 38.234375 22.316406 C 38.132812 22.324219 38.027344 22.320312 37.921875 22.320312 C 37.972656 22.300781 38.027344 22.289062 38.085938 22.292969 Z M 26.558594 8.871094 C 26.558594 8.871094 26.558594 8.867188 26.554688 8.867188 C 26.558594 8.867188 26.558594 8.871094 26.5625 8.871094 C 26.558594 8.871094 26.558594 8.871094 26.558594 8.871094 Z M 26.53125 8.773438 C 26.515625 8.695312 26.503906 8.621094 26.496094 8.539062 C 26.511719 8.625 26.527344 8.710938 26.546875 8.792969 C 26.542969 8.785156 26.539062 8.78125 26.53125 8.773438 Z M 26.175781 8.359375 C 26.222656 8.308594 26.269531 8.253906 26.3125 8.191406 C 26.316406 8.257812 26.328125 8.320312 26.34375 8.386719 C 26.375 8.539062 26.433594 8.671875 26.507812 8.792969 C 26.511719 8.816406 26.519531 8.839844 26.527344 8.863281 C 26.195312 8.589844 26.175781 8.503906 26.175781 8.359375 Z M 26.304688 8.148438 C 26.300781 8.15625 26.296875 8.164062 26.289062 8.175781 C 26.253906 8.222656 26.214844 8.269531 26.175781 8.3125 C 26.183594 8.21875 26.238281 8.039062 26.289062 7.847656 C 26.292969 7.945312 26.296875 8.046875 26.304688 8.148438 Z M 26.0625 8.183594 C 26.066406 8.132812 26.070312 8.082031 26.078125 8.035156 C 26.011719 8.121094 25.921875 8.179688 25.824219 8.210938 C 25.816406 8.222656 25.808594 8.238281 25.800781 8.25 C 25.800781 8.464844 25.847656 8.671875 25.945312 8.828125 C 25.9375 8.828125 25.929688 8.828125 25.925781 8.824219 C 25.832031 8.675781 25.78125 8.488281 25.769531 8.292969 C 25.632812 8.476562 25.453125 8.613281 25.273438 8.695312 C 25.265625 8.691406 25.261719 8.691406 25.257812 8.691406 C 25.449219 8.601562 25.632812 8.449219 25.769531 8.25 C 25.769531 8.242188 25.769531 8.234375 25.769531 8.226562 C 25.699219 8.242188 25.632812 8.242188 25.574219 8.230469 C 25.636719 8.238281 25.703125 8.230469 25.769531 8.210938 C 25.773438 8.03125 25.808594 7.847656 25.878906 7.679688 C 25.910156 7.59375 25.945312 7.511719 25.980469 7.429688 C 25.953125 6.957031 25.75 6.523438 25.855469 6.15625 C 25.773438 6.515625 25.957031 6.910156 26.007812 7.359375 C 26.046875 7.25 26.085938 7.140625 26.113281 7.03125 C 26.105469 7.03125 26.105469 7.035156 26.101562 7.035156 C 26.105469 7.03125 26.109375 7.03125 26.113281 7.027344 C 26.128906 6.949219 26.140625 6.867188 26.140625 6.789062 C 26.15625 6.496094 26.007812 6.242188 25.996094 5.996094 C 26.015625 6.230469 26.164062 6.464844 26.164062 6.75 C 26.167969 6.835938 26.160156 6.921875 26.144531 7.003906 C 26.265625 6.914062 26.359375 6.753906 26.3125 6.558594 C 26.273438 6.339844 26.199219 6.132812 26.226562 5.960938 C 26.21875 6.128906 26.296875 6.3125 26.339844 6.523438 C 26.390625 6.683594 26.332031 6.835938 26.242188 6.933594 C 26.21875 7.132812 26.234375 7.371094 26.207031 7.625 C 26.222656 7.589844 26.242188 7.558594 26.261719 7.527344 C 26.238281 7.570312 26.21875 7.617188 26.199219 7.664062 C 26.195312 7.691406 26.191406 7.71875 26.1875 7.75 C 26.183594 7.835938 26.15625 7.910156 26.117188 7.976562 C 26.109375 8.03125 26.101562 8.089844 26.097656 8.148438 C 26.078125 8.394531 26.148438 8.65625 26.347656 8.726562 C 26.152344 8.679688 26.042969 8.421875 26.0625 8.183594 Z M 25.222656 8.683594 C 25.324219 8.570312 25.40625 8.4375 25.433594 8.269531 C 25.433594 8.257812 25.433594 8.246094 25.433594 8.230469 C 25.402344 8.253906 25.367188 8.273438 25.328125 8.285156 C 25.359375 8.265625 25.398438 8.25 25.433594 8.226562 C 25.4375 8.121094 25.425781 8.015625 25.40625 7.914062 C 25.402344 7.921875 25.402344 7.929688 25.398438 7.941406 C 25.296875 8.222656 25.128906 8.457031 24.941406 8.636719 C 24.933594 8.636719 24.925781 8.636719 24.917969 8.632812 C 25.085938 8.460938 25.238281 8.246094 25.34375 7.992188 C 25.363281 7.945312 25.378906 7.902344 25.394531 7.855469 C 25.332031 7.570312 25.21875 7.308594 25.242188 7.070312 C 25.230469 7.296875 25.339844 7.53125 25.414062 7.800781 C 25.445312 7.671875 25.460938 7.542969 25.453125 7.417969 C 25.363281 7.246094 25.28125 7.050781 25.3125 6.902344 C 25.285156 6.855469 25.253906 6.808594 25.222656 6.769531 C 25.253906 6.808594 25.285156 6.847656 25.316406 6.890625 C 25.332031 6.820312 25.378906 6.757812 25.46875 6.71875 C 25.378906 6.765625 25.339844 6.832031 25.328125 6.910156 C 25.410156 7.046875 25.464844 7.214844 25.476562 7.394531 C 25.5 7.433594 25.519531 7.46875 25.542969 7.503906 C 25.621094 7.660156 25.699219 7.835938 25.652344 8 C 25.617188 8.097656 25.546875 8.160156 25.472656 8.207031 C 25.46875 8.210938 25.46875 8.210938 25.46875 8.210938 C 25.453125 8.414062 25.363281 8.566406 25.25 8.691406 C 25.242188 8.6875 25.230469 8.6875 25.222656 8.683594 Z M 25.359375 2.425781 C 25.351562 2.425781 25.347656 2.425781 25.339844 2.425781 C 25.21875 2.363281 25.101562 2.308594 24.988281 2.257812 C 24.917969 2.136719 24.839844 2.027344 24.761719 1.929688 C 24.996094 2.015625 25.21875 2.171875 25.359375 2.425781 Z M 25.652344 2.523438 C 26.070312 2.601562 26.261719 2.902344 26.339844 3.230469 C 26.335938 3.226562 26.328125 3.222656 26.320312 3.222656 C 26.222656 3.066406 26.128906 2.929688 25.996094 2.824219 C 25.828125 2.695312 25.628906 2.578125 25.425781 2.472656 C 25.503906 2.484375 25.578125 2.5 25.652344 2.523438 Z M 26.347656 3.261719 C 26.351562 3.265625 26.351562 3.265625 26.351562 3.269531 C 26.347656 3.265625 26.347656 3.261719 26.34375 3.261719 C 26.347656 3.261719 26.347656 3.261719 26.347656 3.261719 Z M 26.386719 7.34375 C 26.390625 7.328125 26.390625 7.320312 26.394531 7.308594 C 26.429688 7.417969 26.449219 7.527344 26.449219 7.640625 C 26.4375 7.652344 26.425781 7.660156 26.414062 7.671875 C 26.410156 7.671875 26.410156 7.671875 26.40625 7.671875 C 26.394531 7.625 26.378906 7.582031 26.363281 7.535156 C 26.375 7.460938 26.386719 7.394531 26.386719 7.34375 Z M 26.703125 3.617188 C 26.742188 3.695312 26.761719 3.765625 26.757812 3.835938 C 26.753906 3.828125 26.75 3.824219 26.742188 3.816406 C 26.582031 3.640625 26.472656 3.46875 26.378906 3.3125 C 26.375 3.300781 26.375 3.289062 26.375 3.277344 C 26.503906 3.351562 26.625 3.457031 26.703125 3.617188 Z M 26.632812 5.078125 C 26.621094 5.101562 26.601562 5.121094 26.585938 5.140625 C 26.585938 5.023438 26.554688 4.933594 26.5 4.871094 C 26.5625 4.773438 26.628906 4.683594 26.691406 4.597656 C 26.730469 4.75 26.730469 4.917969 26.632812 5.078125 Z M 26.585938 5.574219 C 26.648438 5.726562 26.628906 5.882812 26.574219 6.019531 C 26.542969 5.941406 26.496094 5.863281 26.433594 5.78125 C 26.476562 5.679688 26.507812 5.585938 26.535156 5.496094 C 26.550781 5.523438 26.570312 5.546875 26.585938 5.574219 Z M 26.585938 6.628906 C 26.632812 6.761719 26.660156 6.90625 26.675781 7.050781 C 26.65625 6.984375 26.625 6.925781 26.582031 6.875 C 26.570312 6.855469 26.554688 6.839844 26.539062 6.820312 C 26.558594 6.753906 26.574219 6.691406 26.585938 6.628906 Z M 26.40625 7.265625 C 26.453125 7.113281 26.496094 6.972656 26.53125 6.847656 C 26.550781 6.871094 26.566406 6.890625 26.582031 6.917969 C 26.738281 7.128906 26.6875 7.433594 26.476562 7.617188 C 26.472656 7.496094 26.445312 7.378906 26.40625 7.265625 Z M 26.367188 8.109375 C 26.394531 8.054688 26.417969 8 26.433594 7.941406 C 26.449219 8.03125 26.460938 8.117188 26.472656 8.210938 C 26.453125 8.371094 26.457031 8.53125 26.484375 8.6875 C 26.421875 8.566406 26.375 8.433594 26.351562 8.285156 C 26.347656 8.242188 26.339844 8.195312 26.335938 8.152344 C 26.347656 8.136719 26.355469 8.125 26.367188 8.109375 Z M 26.414062 7.703125 C 26.425781 7.691406 26.4375 7.683594 26.449219 7.675781 C 26.449219 7.71875 26.445312 7.757812 26.4375 7.800781 C 26.429688 7.765625 26.421875 7.734375 26.414062 7.703125 Z M 26.320312 7.730469 C 26.332031 7.683594 26.34375 7.636719 26.351562 7.589844 C 26.363281 7.625 26.371094 7.65625 26.382812 7.691406 C 26.359375 7.703125 26.339844 7.71875 26.320312 7.730469 Z M 26.386719 7.71875 C 26.402344 7.773438 26.410156 7.824219 26.421875 7.878906 C 26.402344 7.953125 26.375 8.027344 26.332031 8.101562 C 26.324219 7.992188 26.320312 7.878906 26.3125 7.769531 C 26.339844 7.753906 26.363281 7.738281 26.386719 7.71875 Z M 26.574219 7.816406 C 26.539062 7.910156 26.511719 8 26.492188 8.09375 C 26.480469 8.019531 26.46875 7.949219 26.453125 7.875 C 26.472656 7.800781 26.480469 7.726562 26.480469 7.652344 C 26.484375 7.648438 26.492188 7.640625 26.5 7.636719 C 26.589844 7.570312 26.648438 7.476562 26.679688 7.375 C 26.664062 7.523438 26.632812 7.671875 26.574219 7.816406 Z M 21.257812 1.46875 C 21.269531 1.453125 21.28125 1.433594 21.292969 1.417969 C 21.453125 1.164062 21.714844 1.019531 21.957031 1.03125 C 21.6875 1.140625 21.4375 1.320312 21.257812 1.46875 Z M 19.984375 2.945312 C 19.984375 2.890625 19.996094 2.835938 20.011719 2.777344 C 20.035156 2.714844 20.066406 2.660156 20.101562 2.609375 C 20.109375 2.679688 20.125 2.75 20.164062 2.824219 C 20.089844 2.855469 20.03125 2.898438 19.984375 2.945312 Z M 19.710938 3.601562 C 19.621094 3.660156 19.519531 3.714844 19.429688 3.789062 C 19.453125 3.640625 19.503906 3.496094 19.589844 3.359375 C 19.65625 3.230469 19.757812 3.152344 19.871094 3.09375 C 19.78125 3.261719 19.746094 3.460938 19.710938 3.601562 Z M 19.691406 3.671875 C 19.664062 3.765625 19.539062 3.90625 19.410156 4.058594 C 19.410156 3.984375 19.414062 3.90625 19.421875 3.832031 C 19.511719 3.75 19.609375 3.691406 19.707031 3.628906 C 19.703125 3.644531 19.699219 3.660156 19.691406 3.671875 Z M 19.390625 4.085938 C 19.242188 4.269531 19.105469 4.46875 19.140625 4.628906 C 19.128906 4.632812 19.121094 4.640625 19.109375 4.644531 C 19.109375 4.644531 19.109375 4.644531 19.105469 4.644531 C 19.105469 4.464844 19.144531 4.273438 19.238281 4.09375 C 19.273438 4 19.328125 3.921875 19.394531 3.859375 C 19.386719 3.9375 19.386719 4.011719 19.390625 4.085938 Z M 18.605469 5.382812 C 18.601562 5.386719 18.597656 5.394531 18.589844 5.398438 C 18.53125 5.25 18.515625 5.078125 18.585938 4.910156 C 18.671875 4.703125 18.871094 4.679688 19.066406 4.667969 C 18.828125 4.804688 18.597656 5.085938 18.605469 5.382812 Z M 18.855469 7.707031 C 18.90625 7.894531 18.910156 8.089844 18.867188 8.253906 C 18.875 8.503906 18.804688 8.738281 18.695312 8.929688 C 18.722656 8.964844 18.753906 8.996094 18.800781 9.015625 C 18.730469 9.050781 18.652344 9.078125 18.570312 9.109375 C 18.515625 9.171875 18.457031 9.226562 18.394531 9.269531 C 18.453125 9.226562 18.503906 9.175781 18.550781 9.117188 C 18.5 8.988281 18.46875 8.84375 18.457031 8.695312 C 18.496094 8.617188 18.554688 8.550781 18.621094 8.492188 C 18.617188 8.640625 18.609375 8.804688 18.683594 8.917969 C 18.773438 8.75 18.832031 8.554688 18.839844 8.347656 C 18.796875 8.457031 18.730469 8.542969 18.640625 8.601562 C 18.738281 8.523438 18.804688 8.410156 18.839844 8.28125 C 18.839844 8.183594 18.824219 8.082031 18.796875 7.980469 C 18.621094 7.480469 18.300781 6.90625 18.625 6.542969 C 18.339844 6.902344 18.613281 7.417969 18.808594 7.894531 C 18.839844 7.980469 18.855469 8.070312 18.863281 8.160156 C 18.878906 8.03125 18.867188 7.898438 18.832031 7.761719 C 18.742188 7.421875 18.710938 7.027344 18.941406 6.84375 C 18.738281 7.039062 18.769531 7.382812 18.855469 7.707031 Z M 18.214844 9.226562 C 18.242188 9.128906 18.261719 9.03125 18.261719 8.921875 C 18.285156 8.503906 18.164062 8.070312 18.136719 7.613281 C 18.121094 7.425781 18.125 7.238281 18.140625 7.058594 C 18.183594 7.140625 18.246094 7.214844 18.308594 7.28125 C 18.253906 7.347656 18.210938 7.429688 18.199219 7.53125 C 18.183594 7.714844 18.296875 7.882812 18.433594 8.015625 C 18.410156 8.234375 18.402344 8.460938 18.421875 8.699219 C 18.386719 8.773438 18.363281 8.855469 18.355469 8.957031 C 18.363281 9.03125 18.378906 9.101562 18.398438 9.167969 C 18.339844 9.1875 18.277344 9.207031 18.214844 9.226562 Z M 18.179688 6.59375 C 18.1875 6.585938 18.195312 6.574219 18.203125 6.566406 C 18.167969 6.683594 18.144531 6.808594 18.125 6.9375 C 18.097656 6.824219 18.105469 6.707031 18.179688 6.59375 Z M 18.242188 6.511719 C 18.277344 6.46875 18.316406 6.4375 18.355469 6.40625 C 18.277344 6.65625 18.253906 6.90625 18.328125 7.261719 C 18.324219 7.261719 18.324219 7.261719 18.324219 7.261719 C 18.253906 7.1875 18.183594 7.097656 18.144531 6.996094 C 18.164062 6.828125 18.195312 6.664062 18.242188 6.511719 Z M 18.460938 6.039062 C 18.464844 6.050781 18.472656 6.0625 18.476562 6.078125 C 18.4375 6.175781 18.398438 6.265625 18.371094 6.359375 C 18.332031 6.386719 18.296875 6.414062 18.261719 6.449219 C 18.3125 6.300781 18.378906 6.160156 18.460938 6.039062 Z M 18.535156 5.9375 C 18.523438 5.96875 18.507812 6.003906 18.496094 6.035156 C 18.492188 6.027344 18.484375 6.019531 18.480469 6.007812 C 18.5 5.984375 18.519531 5.960938 18.535156 5.9375 Z M 18.464844 8.003906 C 18.460938 8.003906 18.460938 8 18.457031 8 C 18.460938 7.953125 18.46875 7.90625 18.476562 7.859375 C 18.496094 7.9375 18.519531 8.007812 18.535156 8.066406 C 18.511719 8.046875 18.488281 8.027344 18.464844 8.003906 Z M 18.4375 7.984375 C 18.195312 7.785156 18.191406 7.488281 18.316406 7.285156 C 18.320312 7.292969 18.328125 7.296875 18.335938 7.304688 C 18.378906 7.503906 18.421875 7.671875 18.457031 7.808594 C 18.449219 7.867188 18.441406 7.921875 18.4375 7.984375 Z M 18.519531 9.128906 C 18.488281 9.136719 18.457031 9.148438 18.429688 9.15625 C 18.402344 9.074219 18.390625 8.980469 18.398438 8.882812 C 18.402344 8.839844 18.414062 8.800781 18.429688 8.761719 C 18.4375 8.894531 18.46875 9.015625 18.519531 9.128906 Z M 18.449219 8.621094 C 18.445312 8.445312 18.441406 8.234375 18.453125 8.039062 C 18.464844 8.046875 18.476562 8.058594 18.488281 8.070312 C 18.507812 8.085938 18.53125 8.101562 18.550781 8.117188 C 18.59375 8.257812 18.621094 8.355469 18.621094 8.445312 C 18.621094 8.449219 18.621094 8.453125 18.621094 8.457031 C 18.554688 8.511719 18.496094 8.570312 18.449219 8.644531 C 18.449219 8.636719 18.449219 8.628906 18.449219 8.621094 Z M 18.601562 5.421875 C 18.605469 5.417969 18.605469 5.417969 18.609375 5.414062 C 18.609375 5.421875 18.613281 5.433594 18.613281 5.445312 C 18.609375 5.4375 18.605469 5.429688 18.601562 5.421875 Z M 18.582031 5.441406 C 18.597656 5.472656 18.613281 5.5 18.632812 5.527344 C 18.640625 5.558594 18.652344 5.589844 18.671875 5.621094 C 18.628906 5.71875 18.59375 5.808594 18.554688 5.894531 C 18.527344 5.921875 18.5 5.953125 18.476562 5.988281 C 18.472656 5.976562 18.464844 5.960938 18.460938 5.949219 C 18.417969 5.746094 18.480469 5.578125 18.582031 5.441406 Z M 35.429688 24.695312 C 35.457031 24.699219 35.488281 24.703125 35.515625 24.703125 C 35.523438 24.769531 35.53125 24.832031 35.542969 24.894531 C 35.492188 24.835938 35.449219 24.769531 35.429688 24.695312 Z M 35.457031 24.425781 C 35.464844 24.402344 35.476562 24.382812 35.488281 24.359375 C 35.492188 24.464844 35.5 24.570312 35.511719 24.671875 C 35.480469 24.671875 35.453125 24.667969 35.421875 24.660156 C 35.410156 24.585938 35.417969 24.507812 35.457031 24.425781 Z M 35.378906 24.210938 C 35.359375 24.175781 35.339844 24.136719 35.328125 24.097656 C 35.375 24.121094 35.425781 24.136719 35.484375 24.148438 C 35.484375 24.15625 35.480469 24.164062 35.480469 24.171875 C 35.480469 24.210938 35.484375 24.253906 35.484375 24.296875 C 35.480469 24.304688 35.476562 24.3125 35.472656 24.316406 C 35.4375 24.289062 35.402344 24.253906 35.378906 24.210938 Z M 51.546875 33.492188 C 51.449219 33.332031 51.351562 33.023438 50.832031 32.957031 C 50.703125 32.664062 50.441406 32.519531 50.214844 32.46875 C 49.988281 32.421875 49.710938 32.453125 49.613281 32.375 C 49.515625 32.292969 48.996094 32.195312 48.832031 32.195312 C 48.671875 32.195312 48.378906 31.949219 48.023438 31.933594 C 47.617188 31.625 47.144531 31.527344 46.949219 31.511719 C 46.609375 31.1875 46.121094 31.058594 45.78125 31.121094 C 45.375 30.730469 44.382812 30.359375 43.945312 30.375 C 43.503906 29.871094 42.792969 29.351562 42.222656 29.53125 C 41.960938 29.191406 41.753906 28.882812 41.621094 28.847656 C 41.492188 28.816406 41.25 28.898438 41.167969 28.914062 C 41.085938 28.929688 40.566406 29.027344 40.453125 29.074219 C 40.289062 28.929688 40.078125 28.847656 39.867188 28.78125 C 39.996094 28.539062 40.03125 28.230469 40.03125 28.085938 C 40.03125 27.9375 40.09375 27.695312 40.109375 27.53125 C 40.371094 27.613281 40.566406 27.550781 40.613281 27.371094 C 40.664062 27.191406 40.777344 26.65625 40.824219 26.445312 C 40.875 26.234375 41.054688 25.761719 40.535156 25.84375 C 40.535156 25.566406 40.613281 25.292969 40.679688 25.113281 C 40.746094 24.933594 40.761719 24.300781 40.453125 23.976562 C 40.246094 23.757812 40.046875 23.476562 39.914062 23.28125 C 39.90625 23.199219 39.886719 23.117188 39.847656 23.039062 C 39.730469 22.839844 39.484375 22.820312 39.320312 22.898438 C 39.289062 22.886719 39.257812 22.878906 39.234375 22.871094 C 39.199219 22.796875 39.148438 22.734375 39.085938 22.679688 C 39.074219 22.574219 39.015625 22.464844 38.914062 22.394531 C 38.742188 22.277344 38.507812 22.292969 38.292969 22.3125 C 38.222656 22.273438 38.144531 22.253906 38.050781 22.257812 C 37.980469 22.265625 37.914062 22.289062 37.859375 22.316406 C 37.6875 22.3125 37.519531 22.320312 37.394531 22.386719 C 37.261719 22.390625 37.140625 22.402344 37.042969 22.433594 C 36.734375 22.53125 36.277344 22.789062 36.066406 22.953125 C 35.863281 23.109375 35.511719 23.699219 35.484375 24.117188 C 35.425781 24.105469 35.371094 24.089844 35.320312 24.070312 C 35.296875 24.007812 35.285156 23.945312 35.285156 23.886719 C 35.277344 23.9375 35.277344 24 35.289062 24.0625 C 35.261719 24.050781 35.238281 24.039062 35.214844 24.027344 C 35.238281 24.046875 35.265625 24.0625 35.292969 24.078125 C 35.304688 24.136719 35.328125 24.191406 35.363281 24.242188 C 35.386719 24.285156 35.421875 24.316406 35.460938 24.339844 C 35.441406 24.375 35.425781 24.414062 35.410156 24.457031 C 35.386719 24.523438 35.382812 24.589844 35.390625 24.648438 C 35.242188 24.582031 35.199219 24.414062 35.199219 24.292969 C 35.175781 24.410156 35.214844 24.617188 35.394531 24.683594 C 35.417969 24.78125 35.476562 24.863281 35.546875 24.925781 C 35.574219 25.070312 35.605469 25.199219 35.644531 25.308594 C 35.742188 25.582031 35.839844 25.632812 35.953125 25.792969 C 36.066406 25.957031 35.984375 26.136719 36 26.28125 C 35.855469 26.085938 35.59375 26.136719 35.613281 26.265625 C 35.628906 26.394531 35.789062 26.949219 35.871094 27.222656 C 35.953125 27.5 36.132812 28.148438 36.359375 27.875 C 36.410156 27.953125 36.410156 28.148438 36.410156 28.230469 C 36.148438 28.003906 36.015625 28.003906 35.855469 28.070312 C 35.691406 28.132812 35.496094 28.246094 35.402344 28.230469 C 35.304688 28.214844 34.945312 28.132812 34.734375 28.570312 C 34.492188 28.554688 34.34375 28.523438 34.183594 28.570312 C 34.019531 28.410156 33.839844 28.261719 33.679688 28.246094 C 33.664062 28.164062 33.53125 28.003906 33.53125 27.859375 C 33.53125 27.710938 33.777344 26.980469 33.335938 26.867188 C 33.433594 26.65625 33.679688 26.429688 33.761719 26.3125 C 34.003906 26.214844 34.035156 26.167969 34.085938 26.054688 C 34.359375 25.988281 34.457031 25.875 34.507812 25.746094 C 34.667969 25.648438 34.882812 25.292969 34.882812 25.097656 C 34.882812 24.902344 34.785156 24.527344 34.652344 24.167969 C 34.523438 23.8125 34.214844 22.984375 34.070312 22.644531 C 33.921875 22.300781 33.679688 21.636719 33.433594 21.261719 C 33.191406 20.890625 32.558594 20.480469 32.21875 20.289062 C 31.875 20.09375 30.527344 18.746094 30.203125 18.453125 C 29.878906 18.160156 28.839844 17.300781 28.609375 17.105469 C 28.382812 16.910156 28.105469 16.632812 28.011719 16.339844 C 27.914062 16.046875 27.945312 15.367188 27.945312 15.089844 C 27.945312 14.8125 27.816406 13.855469 27.765625 13.53125 C 28.203125 13.253906 28.707031 12.863281 28.839844 12.703125 C 28.96875 12.539062 29.128906 12.296875 28.804688 11.988281 C 28.480469 11.679688 28.433594 11.222656 28.367188 10.835938 C 28.300781 10.445312 27.960938 9.617188 27.71875 9.371094 C 27.484375 9.136719 27.246094 8.949219 26.605469 8.875 C 26.601562 8.875 26.597656 8.871094 26.597656 8.867188 C 26.558594 8.726562 26.53125 8.578125 26.511719 8.425781 C 26.511719 8.347656 26.507812 8.273438 26.503906 8.195312 C 26.523438 8.027344 26.566406 7.859375 26.644531 7.699219 C 26.761719 7.320312 26.722656 6.921875 26.597656 6.582031 C 26.636719 6.390625 26.640625 6.21875 26.582031 6.050781 C 26.664062 5.894531 26.695312 5.703125 26.589844 5.515625 C 26.574219 5.492188 26.5625 5.476562 26.546875 5.457031 C 26.574219 5.359375 26.585938 5.269531 26.589844 5.191406 C 26.625 5.144531 26.65625 5.097656 26.6875 5.042969 C 26.761719 4.875 26.753906 4.71875 26.710938 4.570312 C 26.875 4.335938 26.984375 4.125 26.78125 3.863281 C 26.792969 3.765625 26.773438 3.664062 26.703125 3.554688 C 26.621094 3.40625 26.5 3.304688 26.367188 3.238281 C 26.355469 3.171875 26.335938 3.101562 26.308594 3.03125 C 26.191406 2.753906 25.910156 2.519531 25.570312 2.464844 C 25.515625 2.453125 25.457031 2.441406 25.402344 2.433594 C 25.394531 2.421875 25.390625 2.414062 25.382812 2.402344 C 25.230469 2.125 24.988281 1.972656 24.734375 1.898438 C 24.457031 1.5625 24.132812 1.347656 23.851562 1.203125 C 23.476562 1.007812 22.910156 0.925781 22.421875 0.925781 C 22.277344 0.925781 22.132812 0.960938 21.988281 1.015625 C 21.722656 0.980469 21.398438 1.152344 21.230469 1.449219 C 21.207031 1.480469 21.1875 1.515625 21.167969 1.546875 C 20.894531 1.785156 20.699219 1.851562 20.554688 1.917969 C 20.433594 1.96875 20.089844 2.214844 20.097656 2.566406 C 20.039062 2.636719 19.988281 2.722656 19.957031 2.828125 C 19.949219 2.882812 19.949219 2.933594 19.949219 2.980469 C 19.929688 3.003906 19.914062 3.03125 19.898438 3.054688 C 19.742188 3.121094 19.601562 3.222656 19.519531 3.40625 C 19.453125 3.542969 19.414062 3.679688 19.398438 3.816406 C 19.304688 3.898438 19.226562 4 19.183594 4.136719 C 19.109375 4.304688 19.078125 4.480469 19.082031 4.648438 C 18.863281 4.65625 18.621094 4.675781 18.527344 4.953125 C 18.488281 5.121094 18.511719 5.28125 18.574219 5.417969 C 18.441406 5.574219 18.371094 5.777344 18.453125 6.019531 C 18.355469 6.15625 18.28125 6.316406 18.226562 6.492188 C 18.183594 6.539062 18.148438 6.59375 18.117188 6.65625 C 18.0625 6.78125 18.074219 6.898438 18.117188 7.007812 C 18.089844 7.25 18.089844 7.5 18.113281 7.742188 C 18.15625 8.175781 18.257812 8.585938 18.234375 8.972656 C 18.234375 9.066406 18.21875 9.148438 18.191406 9.230469 C 17.980469 9.296875 17.765625 9.367188 17.597656 9.453125 C 17.257812 9.632812 16.722656 9.925781 16.460938 10.429688 C 16.199219 10.929688 15.957031 11.46875 15.761719 11.695312 C 15.566406 11.921875 15.082031 12.621094 14.964844 12.71875 C 14.851562 12.816406 14.902344 12.980469 15.015625 13.042969 C 15.128906 13.109375 15.371094 13.285156 15.535156 13.480469 C 15.308594 14.050781 14.691406 15.414062 14.429688 16 C 14.171875 16.585938 13.75 17.589844 13.632812 17.820312 C 13.519531 18.046875 13.132812 18.75 13.082031 19.085938 C 13.015625 19.523438 13.035156 20.160156 13.164062 20.792969 C 13.261719 21.277344 13.652344 22.320312 13.730469 22.644531 C 13.8125 22.96875 13.796875 23.472656 13.910156 23.601562 C 14.023438 23.730469 14.121094 23.992188 14.074219 24.152344 C 14.023438 24.316406 13.75 24.773438 13.78125 25.0625 C 13.8125 25.355469 13.925781 25.90625 14.089844 26.070312 C 14.253906 26.234375 14.59375 26.527344 14.707031 26.265625 C 14.964844 26.296875 15.195312 26.265625 15.292969 26.28125 C 15.386719 26.394531 15.535156 26.363281 15.648438 26.296875 C 15.875 26.363281 16.101562 26.363281 16.101562 26.183594 C 16.101562 26.007812 15.925781 25.730469 15.714844 25.746094 C 15.664062 25.597656 15.730469 25.46875 15.648438 25.371094 C 15.648438 25.195312 15.695312 24.882812 15.632812 24.753906 C 15.777344 24.789062 15.84375 24.789062 15.941406 24.789062 C 15.988281 25.046875 16.039062 25.242188 16.167969 25.371094 C 16.296875 25.5 16.460938 25.617188 16.589844 25.582031 C 16.722656 25.550781 16.671875 25.40625 16.605469 25.226562 C 16.542969 25.046875 16.507812 24.691406 16.410156 24.496094 C 16.316406 24.300781 16.085938 23.894531 16.023438 23.78125 C 15.957031 23.667969 15.859375 23.554688 15.730469 23.488281 C 15.632812 23.164062 15.535156 22.855469 15.355469 22.613281 C 15.175781 22.367188 15 21.765625 14.980469 21.34375 C 14.964844 20.921875 15.015625 20.433594 15.0625 20.140625 C 15.113281 19.847656 15.210938 19.507812 15.242188 19.25 C 15.273438 18.988281 15.355469 18.710938 15.46875 18.4375 C 15.582031 18.160156 16.21875 17.054688 16.316406 16.859375 L 16.898438 15.691406 C 16.964844 15.5625 17.207031 14.847656 17.257812 14.75 C 17.273438 15.007812 17.222656 15.5625 17.257812 16.082031 C 17.289062 16.601562 17.484375 18.175781 17.5 18.417969 C 17.515625 18.664062 17.628906 19.589844 17.824219 19.914062 C 17.597656 20.09375 17.597656 20.433594 17.597656 20.675781 C 17.597656 20.921875 17.566406 21.277344 17.746094 21.425781 C 17.921875 21.570312 18.003906 21.636719 18.117188 21.683594 C 17.921875 22.351562 17.792969 23.082031 17.664062 23.519531 C 17.53125 23.957031 17.339844 24.933594 17.304688 25.292969 C 17.273438 25.648438 17.125 26.558594 17.125 26.882812 C 17.125 27.207031 17.027344 27.742188 17.109375 27.890625 C 17.191406 28.035156 17.386719 28.394531 17.371094 28.554688 C 17.355469 28.71875 17.402344 28.929688 17.515625 29.042969 C 17.628906 29.15625 17.648438 29.382812 17.664062 29.644531 C 17.679688 29.902344 17.890625 30.570312 18.214844 31.023438 C 18.261719 31.640625 18.394531 32.324219 18.441406 32.601562 C 18.492188 32.875 18.554688 33.703125 18.621094 33.933594 C 18.6875 34.160156 18.703125 34.613281 18.800781 34.777344 C 18.898438 34.941406 19.058594 35.054688 18.976562 35.296875 C 18.898438 35.539062 18.800781 35.929688 18.765625 36.175781 C 18.734375 36.417969 18.898438 37.292969 18.785156 37.425781 C 18.671875 37.554688 18.621094 37.929688 18.621094 38.074219 C 18.621094 38.21875 18.410156 39.40625 18.34375 39.632812 C 18.28125 39.859375 18.3125 40.707031 18.296875 40.964844 C 18.28125 41.226562 18.214844 42.769531 18.28125 43.371094 C 18.34375 43.972656 18.441406 45.675781 18.425781 46.015625 C 18.410156 46.359375 18.589844 48.277344 18.425781 48.453125 C 18.261719 48.632812 17.875 49.023438 17.875 49.234375 C 17.875 49.445312 18.050781 49.882812 17.957031 49.996094 C 17.859375 50.109375 17.792969 50.484375 17.875 50.566406 C 17.957031 50.648438 18.34375 50.417969 18.492188 50.355469 C 18.492188 50.695312 18.410156 50.988281 18.605469 51.019531 C 18.800781 51.054688 19.269531 51.054688 19.710938 51.070312 C 20.148438 51.085938 20.992188 51.054688 21.089844 50.890625 C 21.1875 50.730469 21.285156 50.417969 21.203125 50.257812 C 21.238281 50.128906 21.414062 50.0625 21.445312 50.011719 C 21.578125 50.324219 21.789062 50.339844 21.851562 50.144531 C 21.917969 49.949219 22.015625 49.769531 22.113281 49.574219 C 22.210938 49.378906 22.375 49.136719 22.550781 49.039062 C 22.730469 48.941406 23.105469 48.648438 23.070312 48.4375 C 23.039062 48.226562 22.796875 48.046875 22.796875 47.902344 C 22.796875 47.757812 22.601562 46.960938 22.488281 46.75 C 22.375 46.539062 21.820312 45.285156 21.804688 44.847656 C 21.789062 44.410156 21.902344 43.742188 22.097656 43.304688 C 22.292969 42.867188 22.828125 42.054688 22.796875 41.566406 C 22.761719 41.078125 22.519531 40.382812 22.519531 39.960938 C 22.519531 39.535156 22.421875 38.855469 22.4375 38.511719 C 22.453125 38.171875 22.339844 37.390625 22.339844 37.195312 C 22.339844 37.003906 22.277344 35.980469 22.257812 35.734375 C 22.242188 35.492188 22.292969 34.175781 22.292969 33.851562 C 22.292969 33.527344 22.375 32.570312 22.40625 32.277344 C 22.4375 31.984375 22.648438 30.765625 22.648438 30.328125 C 22.648438 29.886719 22.632812 28.898438 22.699219 28.621094 C 22.761719 28.34375 22.796875 27.839844 22.894531 27.679688 C 23.085938 27.988281 23.414062 28.441406 23.589844 28.570312 C 23.589844 29.074219 23.6875 29.921875 23.898438 30.195312 C 23.707031 30.765625 23.707031 31.527344 23.867188 31.886719 C 23.867188 32.40625 24.09375 33.316406 23.898438 33.527344 C 23.707031 33.738281 23.476562 33.851562 23.445312 34.191406 C 23.414062 34.535156 23.460938 35.28125 23.527344 35.492188 C 23.589844 35.703125 23.785156 35.980469 23.671875 36.140625 C 23.558594 36.304688 23.347656 36.53125 23.460938 36.824219 C 23.574219 37.117188 23.785156 37.554688 23.753906 37.894531 C 23.722656 38.238281 23.414062 40.007812 23.382812 40.332031 C 23.347656 40.65625 23.234375 42.214844 23.121094 42.460938 C 23.007812 42.703125 22.535156 43.597656 22.453125 43.988281 C 22.375 44.375 22.226562 44.976562 22.339844 45.15625 C 22.453125 45.335938 22.519531 45.449219 22.699219 45.449219 C 22.683594 45.789062 22.585938 46.328125 22.664062 46.683594 C 22.746094 47.042969 22.941406 47.382812 23.121094 47.429688 C 23.300781 47.480469 23.589844 47.445312 23.609375 47.707031 C 23.625 47.964844 23.265625 48.226562 23.316406 48.503906 C 23.363281 48.777344 23.625 49.316406 23.949219 49.363281 C 24.273438 49.414062 24.941406 49.511719 25.378906 49.492188 C 25.816406 49.476562 26.289062 49.476562 26.351562 49.167969 C 26.417969 48.859375 26.433594 48.699219 26.433594 48.519531 C 26.433594 48.339844 26.433594 48 26.320312 47.722656 C 26.207031 47.445312 25.929688 46.847656 25.882812 46.714844 C 25.832031 46.585938 25.832031 46.097656 25.898438 45.839844 C 26.402344 45.789062 26.792969 45.417969 26.855469 45.1875 C 26.921875 44.960938 27.101562 44.359375 27.101562 44.050781 C 27.101562 43.742188 27.085938 42.867188 27.003906 42.460938 C 26.921875 42.054688 26.628906 40.203125 26.742188 39.992188 C 26.855469 39.78125 27.132812 38.96875 27.132812 38.5625 C 27.132812 38.15625 27.214844 37.328125 27.261719 36.984375 C 27.3125 36.644531 27.359375 36.289062 27.492188 36.175781 C 27.621094 36.058594 27.585938 35.605469 27.539062 35.441406 C 27.492188 35.28125 27.066406 35.070312 27.164062 34.84375 C 27.261719 34.613281 27.328125 34.257812 27.246094 34.078125 C 27.164062 33.898438 27.035156 33.574219 27.164062 33.363281 C 27.296875 33.152344 27.523438 31.789062 27.570312 31.398438 C 27.621094 31.007812 28.074219 28.898438 28.105469 28.492188 C 28.140625 28.085938 28.269531 27.144531 28.351562 26.949219 C 28.433594 26.753906 28.53125 26.527344 28.417969 26.332031 C 28.300781 26.136719 28.496094 25.90625 28.546875 25.828125 C 28.59375 25.746094 28.546875 25.46875 28.496094 25.390625 C 28.449219 25.308594 28.480469 25.097656 28.464844 24.804688 C 28.449219 24.511719 28.433594 23.957031 28.285156 23.632812 C 28.140625 23.308594 28.089844 22.742188 27.945312 22.546875 C 27.796875 22.351562 27.667969 21.960938 27.652344 21.765625 C 27.636719 21.570312 27.457031 21.132812 27.3125 20.953125 C 27.328125 20.5625 27.179688 20.335938 27.035156 20.191406 C 26.96875 19.847656 26.9375 19.621094 26.96875 19.507812 C 27.003906 19.394531 26.855469 19.132812 26.742188 19.070312 C 26.628906 19.003906 26.644531 18.828125 26.644531 18.664062 C 26.90625 18.761719 27.765625 19.394531 28.027344 19.621094 C 28.285156 19.847656 29.40625 20.5625 29.652344 20.726562 C 29.894531 20.890625 30.867188 21.601562 31.097656 21.734375 C 31.324219 21.863281 32.023438 22.285156 32.121094 22.398438 C 32.21875 22.515625 32.152344 22.707031 32.234375 22.9375 C 32.3125 23.164062 32.507812 23.457031 32.574219 23.632812 C 32.640625 23.8125 32.929688 24.445312 32.964844 24.753906 C 32.6875 25.273438 32.167969 26.574219 32.136719 26.949219 C 31.890625 27.09375 31.664062 27.46875 31.695312 27.839844 C 31.730469 28.214844 31.714844 28.71875 31.714844 28.976562 C 31.714844 29.238281 31.828125 29.921875 31.890625 30.019531 C 31.957031 30.117188 32.152344 30.40625 32.152344 30.523438 C 32.152344 30.636719 32.363281 30.863281 32.671875 30.828125 C 32.980469 30.796875 33.515625 30.8125 33.777344 30.730469 C 34.054688 30.878906 34.246094 31.058594 34.261719 31.253906 C 34.28125 31.445312 34.425781 31.96875 34.847656 31.949219 C 34.847656 32.4375 34.929688 33.574219 34.945312 33.820312 C 34.960938 34.0625 34.863281 34.695312 34.960938 34.90625 C 35.058594 35.117188 35.304688 35.996094 35.171875 36.140625 C 35.042969 36.289062 34.507812 36.5625 34.492188 36.921875 C 34.476562 37.277344 34.3125 37.832031 34.246094 37.960938 C 34.183594 38.089844 34.054688 38.414062 34.199219 38.480469 C 34.34375 38.546875 34.652344 38.773438 34.976562 38.773438 C 34.523438 39.015625 34.3125 39.503906 34.183594 39.878906 C 34.054688 40.25 33.90625 41.113281 33.859375 41.421875 C 33.808594 41.730469 34.003906 42.28125 33.921875 42.589844 C 33.839844 42.898438 34.003906 43.433594 33.921875 43.742188 C 33.839844 44.050781 33.808594 44.863281 33.859375 45.402344 C 33.90625 45.9375 34.054688 46.277344 34.34375 46.292969 C 34.636719 46.308594 35.058594 46.390625 35.089844 46.34375 C 35.125 46.292969 35.304688 46.164062 35.402344 46.148438 C 35.320312 46.632812 35.335938 47.414062 35.417969 47.722656 C 35.496094 48.03125 35.886719 48.632812 36.410156 48.683594 C 36.925781 48.730469 37.527344 48.503906 37.722656 48.226562 C 37.917969 47.949219 38.195312 47.527344 38.179688 47.203125 C 38.160156 46.878906 38.113281 46.503906 38.113281 46.375 C 38.113281 46.246094 38.390625 45.886719 38.421875 45.773438 C 38.453125 45.660156 38.339844 45.058594 38.242188 44.929688 C 38.390625 44.832031 38.488281 45.042969 38.570312 45.058594 C 38.632812 45.335938 38.699219 45.5625 38.796875 45.773438 C 38.894531 45.984375 38.992188 46 38.925781 46.34375 C 38.859375 46.683594 39.007812 46.503906 38.859375 46.878906 C 38.714844 47.253906 38.355469 47.949219 38.308594 48.226562 C 38.257812 48.503906 38.113281 49.023438 38.113281 49.347656 C 38.113281 49.671875 38.257812 49.722656 38.113281 50.191406 C 37.96875 50.664062 38.195312 50.84375 38.472656 50.890625 C 38.746094 50.941406 39.398438 50.941406 39.609375 50.941406 C 39.820312 50.941406 40.386719 50.90625 40.515625 50.777344 C 40.648438 50.648438 40.90625 50.417969 40.84375 50.175781 C 41.3125 49.980469 41.621094 49.769531 41.734375 49.492188 C 41.847656 49.21875 42.027344 48.875 41.929688 48.195312 C 41.832031 47.511719 41.945312 47.105469 41.960938 46.796875 C 41.980469 46.488281 42.042969 45.789062 41.996094 45.417969 C 41.945312 45.042969 41.898438 44.898438 42.011719 44.554688 C 42.125 44.214844 42.0625 43.027344 42.09375 42.703125 C 42.125 42.378906 42.320312 42.3125 42.304688 41.972656 C 42.289062 41.632812 42.175781 41.4375 42.191406 41.078125 C 42.207031 40.722656 42.191406 40.039062 42.175781 39.828125 C 42.15625 39.617188 42.078125 39.03125 41.816406 38.902344 C 42.191406 38.804688 42.238281 38.511719 42.238281 38.300781 C 42.238281 38.089844 42.289062 37.507812 42.238281 37.34375 C 42.191406 37.179688 42.125 36.890625 42.0625 36.808594 C 42.304688 36.515625 42.335938 35.847656 42.367188 35.410156 C 42.402344 34.972656 42.5 33.996094 42.597656 33.933594 C 42.695312 33.867188 42.808594 33.6875 42.890625 33.558594 C 43.328125 33.542969 43.894531 33.492188 44.351562 33.65625 C 44.804688 33.820312 45.84375 33.949219 46.265625 33.980469 C 46.691406 34.015625 47.957031 34.257812 48.410156 34.242188 C 48.867188 34.226562 49.972656 34.242188 50.183594 34.242188 C 50.394531 34.242188 50.554688 34.109375 50.636719 33.882812 C 50.765625 33.867188 50.75 34.03125 50.800781 34.0625 C 50.847656 34.09375 50.996094 34.078125 50.976562 33.800781 C 51.027344 33.882812 51.074219 34.128906 51.15625 34.207031 C 51.238281 34.289062 51.367188 34.175781 51.382812 34.0625 C 51.5625 34.144531 51.691406 34.144531 51.691406 34.015625 C 51.691406 33.882812 51.644531 33.65625 51.546875 33.492188 Z M 25.980469 7.511719 C 25.96875 7.542969 25.957031 7.574219 25.941406 7.601562 C 25.855469 7.792969 25.808594 8 25.800781 8.199219 C 25.890625 8.050781 25.953125 7.886719 25.972656 7.699219 C 25.980469 7.636719 25.980469 7.574219 25.980469 7.511719 " fill-opacity="1" fill-rule="nonzero"/></g></svg>